<svg width="20px" height="20px" viewBox="0 0 20 20" version="1.1" xmlns="http://www.w3.org/2000/svg">
    <g id="Symbols" stroke="none" stroke-width="1" fill="none" fill-rule="evenodd">
        <g id="close" fill="#444549">
            <path d="M12.8761244,10.3196347 C12.6943975,10.1369863 12.6943975,9.8630137 12.8761244,9.6803653 L19.7251267,2.83105023 C19.9077668,2.64840183 20,2.37442922 20,2.19178082 C20,2.00913242 19.9077668,1.73515982 19.7251267,1.55251142 L18.4475595,0.273972603 C18.2640062,0.0913242009 17.9909593,0 17.8074061,0 C17.5343592,0 17.3508059,0.0913242009 17.1681658,0.273972603 L10.3191635,7.12328767 C10.1365234,7.30593607 9.86256335,7.30593607 9.67992329,7.12328767 L2.83092096,0.273972603 C2.6482809,0.0913242009 2.37432081,0 2.19168075,0 C2.00995388,0 1.73508059,0.0913242009 1.55335373,0.273972603 L0.273960093,1.55251142 C0.091320031,1.73515982 0,2.00913242 0,2.19178082 C0,2.37442922 0.091320031,2.64840183 0.273960093,2.83105023 L7.12296242,9.6803653 C7.30560248,9.8630137 7.30560248,10.1369863 7.12296242,10.3196347 L0.273960093,17.1689498 C0.091320031,17.3515982 0,17.6255708 0,17.8082192 C0,17.9899543 0.091320031,18.2648402 0.273960093,18.4465753 L1.55335373,19.7260274 C1.73508059,19.9086758 2.00995388,20 2.19168075,20 C2.37432081,20 2.6482809,19.9086758 2.83092096,19.7260274 L9.67992329,12.8767123 C9.86256335,12.6940639 10.1365234,12.6940639 10.3191635,12.8767123 L17.1681658,19.7260274 C17.3508059,19.9086758 17.624766,20 17.8074061,20 C17.9909593,20 18.2640062,19.9086758 18.4475595,19.7260274 L19.7251267,18.4465753 C19.9077668,18.2648402 20,17.9899543 20,17.8082192 C20,17.6255708 19.9077668,17.3515982 19.7251267,17.1689498 L12.8761244,10.3196347 Z" id="Fill-1" />
        </g>
    </g>
</svg>